
        <svg xmlns="http://www.w3.org/2000/svg" xmlns:xlink="http://www.w3.org/1999/xlink" version="1.1" width="3170.940170940171" 
        height="965.8803731848079" viewBox="0 -42.73504273504273 3170.940170940171 965.8803731848079">
			
			<g transform="scale(8.547008547008547) translate(10, 10)">
				<defs id="SvgjsDefs1246"></defs><g id="SvgjsG1247" featureKey="symbolFeature-0" transform="matrix(1.2729056111654493,0,0,1.2729056111654493,-12.232643123218114,-34.005130446243385)" fill="#005d6c"><polygon xmlns="http://www.w3.org/2000/svg" points="45.576,30.947 32.59,30.148 32.59,25.353 45.576,25.353 "></polygon><rect xmlns="http://www.w3.org/2000/svg" x="48.572" y="43.333" width="22.974" height="17.98"></rect><polygon xmlns="http://www.w3.org/2000/svg" points="32.59,36.94 45.576,37.739 45.576,61.313 32.59,61.313 "></polygon><circle xmlns="http://www.w3.org/2000/svg" cx="67.426" cy="87.9" r="4.026"></circle><circle xmlns="http://www.w3.org/2000/svg" cx="25.074" cy="87.9" r="4.026"></circle><path xmlns="http://www.w3.org/2000/svg" d="M77,34.9l-55.5-3.4l-1.5-5c-0.2-0.8-1.4-3.4-7.7-3.7c-2.463-0.153-2.588,1.05-2.588,1.05C9.197,25.663,10.8,25.6,10.8,25.6  c4.4,0,6,1.1,6.2,1.5L29,67l-5.2,8.2c-0.2,0.3-1.2,1.7-0.4,3.2c0.6,1.1,1.8,1.4,3.5,1.4h43.7c0.7,0,1.2,0.8,1.2,1.4  c0,0.8,0.7,1.6,1.5,1.6c0.8,0,1.5-0.9,1.5-1.7c0-2.3-1.9-4.3-4.2-4.3H26.5l5.1-8.1l40.7-1.9c2.1,0,3.7-1.6,4.1-3.9L81.1,39  C81.1,36.7,79.2,34.9,77,34.9z M73.5,62.4c-0.1,0.3-0.3,1.4-1.3,1.4l-40.4,2l-9.4-31.4l54.5,3.2c0.6,0,1.1,0.5,1.2,1L73.5,62.4z"></path></g><g id="SvgjsG1248" featureKey="nameFeature-0" transform="matrix(1.8297875855220456,0,0,1.8297875855220456,108.8043621289401,-3.750320473184658)" fill="#00043c"><path d="M1.2567 12.059999999999999 l10.666 -0.1732 l-0.063632 3.4915 l-3.4915 -0.063632 l0.16098 20.42 l-2.1769 0.039844 l2.1808 0.48444 l0.029883 3.7851 l-3.2163 -0.058244 s-0.13566 -15.828 -0.082772 -22.162 l0.30738 -3.6923 l-0.755 1.1191 l-3.6157 -0.065936 z M23.569 12.321000000000002 l0.70596 27.722 l-2.9503 -0.065936 l-0.088164 -12.812 l0 -2.5625 l-0.3825 1.287 l-4.0228 0.010742 l0.25066 14.136 l-2.8422 -0.065936 s-0.068204 -2.298 -0.16172 -5.5672 l1.7906 -0.2591 l-1.8044 -0.23531 c-0.23226 -8.1096 -0.50436 -21.78 -0.50436 -21.78 l2.574 0.059024 l0.23609 10.462 l-1.2671 0.3227 l5.886 -0.053672 l-0.11422 -10.658 z M29.977600000000002 29.447 l0.32719 10.55 l-2.6744 0.0030469 l-0.13184 -15.924 l3.8402 -0.19008 l1.8182 -2.6353 l0.37406 -3.5934 s-0.90984 -2.2038 -1.07 -2.252 c-0.1602 -0.04754 -2.7012 -0.01918 -2.8614 -0.06746 s-0.42768 2.4912 -0.42768 2.4912 l0 2.3471 s2.1125 0.21539 2.1125 0.072072 s0.1602 -1.9163 0.1602 -1.9163 s-0.85544 0.38324 -0.90908 0.23992 s-0.053672 -2.0121 -0.053672 -2.0121 l1.6588 0.6186 l0.21308 2.1554 l-0.64156 2.3478 l-4.6832 1.1889 l-0.34875 -10.664 l3.6954 0 l2.5663 0.86236 l2.0328 2.2995 l0.53504 3.6777 s-0.32117 3.2209 -0.53504 3.5084 s-1.2839 2.6828 -1.6043 2.7786 s-2.2106 1.2149 -2.2106 1.2149 l6.0892 13.398 l-3.4003 0.016875 z M42.32840000000001 37.4202 l4.872 -0.25141 l0 2.7893 l-7.8032 0.08586 l0.20008 -11.168 l-0.71744 -16.712 l7.9916 -0.016094 l-0.21539 2.7273 l-5.6524 -0.14332 l1.6235 0.44228 l-0.93668 8.7436 l4.1048 0.25524 l0.12723 3.066 l-3.0745 0.10578 l-0.1993 -1.5591 z M57.1976 12.190000000000001 l3.4508 27.854 l-2.4912 0 l-0.89684 -6.5524 l-0.34953 -2.9028 l-0.22535 1.0103 c-0.87384 -0.10961 -3.9498 -0.17859 -3.9498 -0.17859 l-0.26445 8.4116 l-4.0312 0.21156 l0.4032 -1.714 l2.5816 -0.44688 l-2.4421 -0.14562 l2.0136 -8.556 l6.2977 0 l-1.5652 -11.978 l-2.1102 11.271 l-2.2658 0.17859 l3.6409 -16.462 l2.2038 0 z M74.047 22.558 c0 0 0.20387 6.0908 -0.15258 6.372 c-0.35566 0.28133 -1.169 5.092 -1.4081 5.3764 s-2.5348 3.8034 -2.774 4.0876 s-6.556 1.6503 -6.556 1.6503 c-0.041408 -0.12418 -0.063632 -1.2119 -0.072812 -2.889 c1.7239 -0.31656 4.7784 -0.86616 4.7784 -0.86616 s2.6721 -4.702 2.6782 -4.9592 s1.7339 -7.6224 1.428 -7.8232 c-0.30586 -0.20008 -1.4173 -5.6364 -1.5675 -5.8332 s-3.5873 -2.469 -3.8226 -2.3456 c-0.23609 0.12266 -2.4467 1.7446 -2.4467 1.7446 l1.2433 16.196 l3.0331 -2.761 s1.4594 -6.7276 1.2257 -6.6688 c-0.23379 0.058244 -2.1708 -0.052148 -2.1708 -0.052148 l-0.4576 5.3988 l-1.2724 -10.914 l2.3961 0.37942 l2.0788 3.9138 l-0.73204 7.9036 l-2.6069 4.4456 s-2.1815 -0.57416 -3.7889 -0.89224 c0.011484 -8.2548 0.16555 -22.057 0.16555 -22.057 l4.4196 0.10578 l4.7924 3.9782 z M82.69680000000001 15.954999999999998 l-2.285 -1.1603 l-1.6289 1.0586 l-0.23301 2.3808 l0.26062 1.3529 c0.73276 0.8692 3.9966 6.0216 3.9966 6.0216 l2.4912 4.4252 s0.41084 5.4524 0.39707 5.716 s-1.5898 3.5834 -1.5898 3.5834 l-4.1452 0.71212 l-3.2156 -1.4763 l-1.425 -2.6468 l0.67988 -4.7188 l3.4371 -1.4978 l2.2152 1.9523 l0.31965 2.9909 l-1.5767 1.7614 l-2.0267 -0.54804 l0.15945 -2.0121 l1.2295 -0.6868 l-0.04828 0.719 l-0.76652 1.1337 l1.274 -0.18703 l0.52508 -1.8481 l-1.4081 -0.86004 l-1.2242 1.1743 l-0.45992 1.9201 l0.21848 1.2693 l3.0944 0.77496 l1.5016 -1.96 l0.35871 -1.2908 l-0.25524 -3.122 l-2.2681 -4.662 l-2.8453 -3.7352 l-1.4978 -4.8796 l0.95816 -4.0564 l3.1619 -1.6074 l3.6409 1.1758 l1.2096 1.6725 l0.036016 3.4056 l-1.4372 2.3478 l-2.7288 -0.08586 l-1.4211 -2.3946 l0.60404 -1.6878 l1.054 -0.33574 l1.3652 1.126 l-0.21387 1.0302 l-1.2234 -0.5442 l1.2954 1.6802 l0.893 -1.0287 z M95.8192 12.244 l2.6514 -0.27367 l-0.8148 28.074 l-2.3816 0 l-4.35 -21.367 l-0.0076564 21.175 l-2.8622 0.17172 l-0.33422 -26.139 c1.441 -0.25524 3.5958 -0.66916 3.5958 -0.66916 l-3.5958 0.16402 l0 -0.88074 l4.1384 -0.19547 c0.96812 5.0008 3.6732 15.908 3.6732 15.908 z M104.32839999999999 37.4202 l4.872 -0.25141 l0 2.7893 l-7.8032 0.08586 l0.20008 -11.168 l-0.71744 -16.712 l7.9916 -0.016094 l-0.21539 2.7273 l-5.6524 -0.14332 l1.6235 0.44228 l-0.93668 8.7436 l4.1048 0.25524 l0.12723 3.066 l-3.0745 0.10578 l-0.1993 -1.5591 z M118.2168 15.954999999999998 l-2.285 -1.1603 l-1.6289 1.0586 l-0.23301 2.3808 l0.26062 1.3529 c0.73276 0.8692 3.9966 6.0216 3.9966 6.0216 l2.4912 4.4252 s0.41084 5.4524 0.39707 5.716 s-1.5898 3.5834 -1.5898 3.5834 l-4.1452 0.71212 l-3.2156 -1.4763 l-1.425 -2.6468 l0.67988 -4.7188 l3.4371 -1.4978 l2.2152 1.9523 l0.31965 2.9909 l-1.5767 1.7614 l-2.0267 -0.54804 l0.15945 -2.0121 l1.2295 -0.6868 l-0.04828 0.719 l-0.76652 1.1337 l1.274 -0.18703 l0.52508 -1.8481 l-1.4081 -0.86004 l-1.2242 1.1743 l-0.45992 1.9201 l0.21848 1.2693 l3.0944 0.77496 l1.5016 -1.96 l0.35871 -1.2908 l-0.25524 -3.122 l-2.2681 -4.662 l-2.8453 -3.7352 l-1.4978 -4.8796 l0.95816 -4.0564 l3.1619 -1.6074 l3.6409 1.1758 l1.2096 1.6725 l0.036016 3.4056 l-1.4372 2.3478 l-2.7288 -0.08586 l-1.4211 -2.3946 l0.60404 -1.6878 l1.054 -0.33574 l1.3652 1.126 l-0.21387 1.0302 l-1.2234 -0.5442 l1.2954 1.6802 l0.893 -1.0287 z M121.69669999999999 12.059999999999999 l10.666 -0.1732 l-0.063632 3.4915 l-3.4915 -0.063632 l0.16098 20.42 l-2.1769 0.039844 l2.1808 0.48444 l0.029883 3.7851 l-3.2163 -0.058244 s-0.13566 -15.828 -0.082772 -22.162 l0.30738 -3.6923 l-0.755 1.1191 l-3.6157 -0.065936 z"></path></g>
			</g>
		</svg>
	